<?xml version="1.0" standalone="no"?><!DOCTYPE svg PUBLIC "-//W3C//DTD SVG 1.1//EN" "http://www.w3.org/Graphics/SVG/1.1/DTD/svg11.dtd"><svg t="1623402410693" class="icon" viewBox="0 0 1024 1024" version="1.1" xmlns="http://www.w3.org/2000/svg" p-id="3919" xmlns:xlink="http://www.w3.org/1999/xlink" width="200" height="200"><defs><style type="text/css"></style></defs><path d="M134.976 853.312H89.6c-26.56 0-46.912-20.928-46.912-48.256 0-27.392 20.352-48.32 46.912-48.32h45.376c26.624 0 46.912 20.928 46.912 48.32 0 27.328-20.288 48.256-46.912 48.256zM134.976 560.32H89.6C63.04 560.32 42.688 539.392 42.688 512s20.352-48.32 46.912-48.32h45.376c26.624 0 46.912 20.928 46.912 48.32s-20.288 48.32-46.912 48.32zM134.976 267.264H89.6c-26.56 0-46.912-20.928-46.912-48.32 0-27.328 20.352-48.256 46.912-48.256h45.376c26.624 0 46.912 20.928 46.912 48.256 0 27.392-20.288 48.32-46.912 48.32zM311.744 853.312c-26.56 0-46.912-20.928-46.912-48.256 0-27.392 20.352-48.32 46.912-48.32h622.72c26.56 0 46.848 20.928 46.848 48.32 0 27.328-20.288 48.256-46.912 48.256H311.744c1.6 0 1.6 0 0 0zM311.744 560.32c-26.56 0-46.912-20.928-46.912-48.32s20.352-48.32 46.912-48.32h622.72c26.56 0 46.848 20.928 46.848 48.32s-20.288 48.32-46.912 48.32H311.744c1.6 0 1.6 0 0 0zM311.744 267.264c-26.56 0-46.912-20.928-46.912-48.32 0-27.328 20.352-48.256 46.912-48.256h622.72c26.56 0 46.848 20.928 46.848 48.256 0 27.392-20.288 48.32-46.912 48.32H311.744c1.6 0 1.6 0 0 0z" fill="#ffffff" p-id="3920"></path></svg>